<?xml version="1.0" standalone="no"?>
<!DOCTYPE svg PUBLIC "-//W3C//DTD SVG 20010904//EN"
 "http://www.w3.org/TR/2001/REC-SVG-20010904/DTD/svg10.dtd">
<svg version="1.0" xmlns="http://www.w3.org/2000/svg"
 width="512.000000pt" height="512.000000pt" viewBox="0 0 512.000000 512.000000"
 preserveAspectRatio="xMidYMid meet">
<metadata>
Created by potrace 1.14, written by Peter Selinger 2001-2017
</metadata>
<g transform="translate(0.000000,512.000000) scale(0.100000,-0.100000)"
fill="#000000" stroke="none">
<path d="M0 2560 l0 -2560 2560 0 2560 0 0 2560 0 2560 -2560 0 -2560 0 0
-2560z m2566 2299 c32 -6 91 -26 129 -44 126 -61 208 -144 315 -320 235 -386
290 -445 412 -445 63 0 131 31 162 73 25 34 33 137 16 205 -28 112 -128 172
-214 127 -38 -20 -43 -19 -20 6 50 55 135 65 196 24 76 -52 127 -217 99 -321
-15 -57 -67 -131 -114 -162 -46 -31 -145 -41 -214 -23 -96 26 -183 130 -335
399 -70 124 -96 160 -168 232 -126 126 -244 187 -380 197 -112 9 -279 -49
-374 -129 -65 -55 -43 -17 31 53 121 115 282 160 459 128z m955 -149 c215 -67
370 -257 445 -545 25 -96 25 -304 0 -394 -39 -144 -114 -270 -215 -364 -156
-144 -418 -197 -584 -119 -89 41 -129 80 -219 215 -43 65 -97 136 -119 158
-95 95 -185 84 -224 -28 -10 -28 -14 -32 -15 -15 -1 63 66 142 121 142 79 0
139 -50 236 -197 79 -121 128 -168 214 -207 192 -88 399 -31 580 161 124 130
169 236 177 411 7 164 -22 292 -99 443 -101 194 -242 300 -446 331 -51 8 -69
14 -57 19 37 15 142 9 205 -11z m-1628 -173 c74 -39 137 -109 184 -205 33 -66
38 -84 38 -151 0 -62 -4 -84 -24 -118 -28 -49 -80 -88 -131 -97 l-35 -6 47 29
c63 40 90 94 96 191 6 99 -20 162 -90 225 -153 138 -427 105 -604 -71 -116
-115 -176 -281 -177 -484 0 -179 56 -338 171 -481 85 -107 140 -134 272 -134
72 0 103 4 128 18 32 18 33 19 26 65 -9 63 -55 161 -91 194 -42 41 -79 44
-135 14 -56 -29 -61 -21 -17 28 82 94 203 28 256 -139 12 -39 25 -83 28 -98
l6 -28 55 31 c67 37 65 27 -4 -20 l-49 -33 -6 -101 c-11 -180 -56 -390 -153
-714 -32 -104 -54 -196 -52 -214 3 -31 7 -26 87 90 46 67 101 136 122 153 58
45 174 95 269 114 129 26 184 50 225 97 19 23 35 38 35 34 0 -19 -42 -85 -76
-118 -47 -48 -97 -72 -223 -108 -56 -16 -122 -39 -148 -52 -105 -52 -231 -216
-314 -408 -45 -105 -55 -152 -69 -309 -6 -69 -13 -127 -17 -130 -11 -11 5 354
21 465 9 61 37 183 61 270 112 397 174 669 190 836 l6 67 -51 -20 c-84 -32
-155 -35 -229 -9 -135 45 -221 125 -296 275 -68 136 -88 222 -89 390 -1 166
12 226 80 364 37 74 62 110 118 165 101 101 192 146 346 170 62 10 156 -7 213
-37z m882 -365 c100 -34 163 -82 308 -234 79 -83 169 -168 206 -193 167 -113
304 -91 475 78 46 45 93 96 105 112 l22 30 -17 -35 c-48 -98 -193 -247 -281
-288 -46 -21 -73 -26 -133 -26 -121 -1 -175 31 -362 208 -174 165 -274 247
-336 277 -100 49 -246 31 -324 -39 -35 -31 -39 -33 -28 -12 32 61 92 115 155
138 38 15 143 6 210 -16z m-707 -281 c20 -10 47 -30 59 -43 30 -33 100 -153
167 -292 69 -140 144 -224 241 -272 53 -25 70 -29 145 -28 l85 1 -45 -21 c-31
-14 -66 -20 -115 -21 -145 0 -255 92 -369 310 -145 274 -199 335 -288 321 -84
-14 -128 -61 -128 -139 0 -56 20 -104 59 -141 25 -24 39 -29 77 -28 32 0 43
-3 33 -9 -8 -5 -31 -9 -51 -9 -74 0 -162 112 -162 205 0 147 155 236 292 166z
m1251 -1083 c0 -137 9 -208 62 -514 25 -149 30 -197 26 -289 -7 -188 -68 -317
-177 -379 -51 -29 -62 -31 -145 -30 -102 2 -225 30 -370 87 -49 19 -137 53
-195 75 -176 68 -259 86 -390 86 -103 -1 -125 -4 -213 -34 -107 -36 -186 -82
-287 -167 -58 -49 -55 -46 21 29 66 64 108 96 175 130 119 62 178 77 314 84
154 9 223 -4 425 -77 94 -33 224 -77 290 -96 107 -31 130 -34 210 -31 72 4
100 9 140 30 91 47 144 123 164 235 12 65 10 90 -34 353 -29 169 -43 432 -30
563 3 42 8 77 10 77 2 0 4 -60 4 -132z m-289 -340 c23 -50 26 -140 8 -202 -17
-55 -91 -131 -143 -145 -57 -15 -179 -13 -254 4 -36 9 -128 41 -205 72 -132
53 -146 57 -226 57 -158 1 -287 -61 -458 -219 -68 -63 -89 -91 -122 -158 -22
-45 -40 -76 -40 -69 0 50 134 257 224 347 196 193 396 224 671 103 308 -135
429 -136 512 -4 34 53 43 162 20 219 -22 51 -11 47 13 -5z m-603 -391 c47 -14
133 -53 212 -97 203 -112 239 -125 346 -125 161 0 240 55 282 195 l13 45 -5
-48 c-14 -136 -123 -244 -258 -254 -84 -7 -164 14 -312 83 -296 138 -367 161
-520 171 -109 6 -206 -12 -302 -58 -91 -42 -243 -194 -291 -289 -21 -40 -31
-53 -27 -35 19 87 102 206 207 296 123 106 221 136 444 138 110 1 145 -3 211
-22z m-38 -665 c57 -30 63 -31 84 -17 51 33 139 55 224 55 128 0 192 -26 410
-166 98 -64 144 -84 190 -84 54 0 73 15 73 57 0 70 -53 98 -139 73 -19 -5 -37
-8 -39 -5 -11 11 71 94 103 105 77 26 170 -19 222 -107 24 -41 28 -58 28 -123
0 -64 -5 -83 -28 -122 -39 -67 -83 -107 -153 -140 -99 -46 -190 -61 -334 -54
-203 10 -387 62 -513 146 -48 33 -65 39 -77 31 -154 -110 -407 -184 -630 -184
-120 1 -228 29 -313 83 -50 32 -101 100 -117 160 -40 144 40 285 169 298 57 5
95 -11 161 -67 l45 -39 -45 8 c-70 14 -136 12 -149 -4 -18 -22 -25 -81 -12
-105 24 -44 79 -27 292 92 257 143 270 148 395 144 81 -2 99 -7 153 -35z m156
-791 c16 -9 38 -31 48 -50 25 -42 15 -66 -44 -106 -24 -16 -46 -31 -49 -33 -3
-2 7 -13 23 -24 37 -27 35 -59 -6 -95 -41 -36 -114 -58 -164 -50 -58 10 -133
97 -82 97 16 0 19 7 19 44 0 28 10 63 30 102 34 67 34 68 19 59 -14 -9 -59 3
-59 15 0 26 152 73 205 63 17 -3 43 -13 60 -22z m-712 1 c23 -25 13 -32 -50
-32 -29 0 -53 -4 -53 -10 0 -5 9 -10 19 -10 33 0 33 -17 1 -81 -17 -33 -29
-63 -27 -66 3 -2 23 12 45 31 42 38 67 44 96 23 16 -12 15 -17 -13 -77 -17
-35 -28 -66 -25 -69 3 -3 26 17 51 44 24 28 56 62 69 77 41 46 132 50 154 8
16 -30 0 -50 -71 -90 -68 -38 -81 -55 -50 -65 24 -7 64 17 128 78 58 55 68 38
12 -19 -80 -82 -147 -98 -199 -45 l-29 28 -27 -28 c-32 -34 -53 -36 -85 -11
-20 17 -21 23 -12 60 15 59 -1 55 -67 -19 -59 -65 -84 -71 -96 -23 -7 25 54
165 98 226 l21 31 -52 -5 c-35 -3 -57 -11 -66 -24 -8 -10 -45 -79 -82 -151
-47 -91 -73 -133 -85 -133 -41 0 -32 43 38 183 l45 88 -53 -3 c-137 -8 -12 46
185 81 143 25 160 25 180 3z m962 -122 c4 -6 1 -26 -5 -45 -10 -30 -14 -34
-39 -29 -26 6 -29 2 -60 -69 -29 -67 -35 -74 -57 -69 -23 4 -24 8 -24 72 0 37
3 82 6 99 6 28 10 31 41 31 33 0 35 -2 31 -30 -6 -42 7 -37 26 10 13 34 20 40
45 40 17 0 33 -5 36 -10z m112 -18 c9 -6 6 -25 -13 -81 -14 -40 -24 -77 -21
-84 4 -14 87 101 87 123 0 32 24 52 54 44 30 -7 30 -7 5 -96 -25 -90 6 -71 66
41 30 56 55 71 84 52 11 -7 11 -16 -2 -57 -23 -72 -30 -114 -19 -114 27 0 91
90 116 163 3 10 10 15 16 12 41 -25 -82 -205 -140 -205 -21 0 -53 27 -63 51
-4 10 -13 4 -32 -19 -30 -36 -52 -36 -93 1 l-22 21 -16 -22 c-21 -31 -69 -30
-89 2 -14 22 -14 30 0 91 8 37 18 71 21 76 6 11 45 11 61 1z m594 -15 c25 -16
33 -42 19 -67 -12 -23 -52 -27 -69 -7 -8 11 -5 16 14 25 31 14 32 32 3 32 -22
0 -88 -34 -88 -45 0 -2 27 -18 60 -35 34 -17 64 -38 67 -46 17 -45 -86 -62
-155 -26 -45 23 -57 67 -22 80 20 7 20 9 6 21 -66 55 86 117 165 68z"/>
<path d="M2630 1378 c-25 -4 -72 -21 -104 -38 -32 -16 -67 -30 -78 -30 -10 0
-43 14 -74 32 -45 25 -71 32 -129 36 -98 6 -143 -10 -345 -122 -219 -122 -261
-139 -324 -133 -40 3 -55 11 -78 36 -15 17 -28 43 -28 57 0 38 -24 24 -28 -16
-4 -38 20 -107 50 -145 24 -31 90 -66 173 -91 177 -54 548 20 710 141 33 25
68 45 79 45 10 0 42 -18 70 -40 160 -123 514 -195 709 -144 164 42 262 147
241 259 -8 44 -20 45 -28 2 -11 -60 -68 -97 -148 -97 -64 0 -131 30 -268 119
-140 91 -205 121 -286 129 -38 4 -89 4 -114 0z"/>
<path d="M2450 603 c-8 -3 -26 -10 -40 -15 -22 -8 -23 -10 -8 -19 17 -9 16
-13 -7 -59 -25 -50 -55 -156 -55 -197 0 -18 6 -23 25 -23 49 0 105 41 119 87
9 30 -19 44 -67 33 -65 -14 -35 24 44 58 49 21 89 63 89 93 0 38 -51 60 -100
42z"/>
<path d="M3385 360 c3 -6 -1 -18 -11 -27 -16 -16 -15 -18 4 -26 16 -7 29 -5
48 8 l28 18 -23 18 c-25 20 -57 26 -46 9z"/>
</g>
</svg>
